<?xml version="1.0" encoding="utf-8"?>
<!-- Generator: Adobe Illustrator 23.0.6, SVG Export Plug-In . SVG Version: 6.00 Build 0)  -->
<svg version="1.1" id="Layer_1" xmlns="http://www.w3.org/2000/svg" xmlns:xlink="http://www.w3.org/1999/xlink" x="0px" y="0px"
	 viewBox="0 0 561.9 561.8" style="enable-background:new 0 0 561.9 561.8;" xml:space="preserve">
<style type="text/css">
	.st0{fill:none;}
	.st1{display:none;fill:#FFFFFF;}
	.st2{fill-rule:evenodd;clip-rule:evenodd;fill:#8C4AFF;}
	.st3{fill-rule:evenodd;clip-rule:evenodd;fill:#4D1DB5;}
</style>
<title>
	Formily
</title>
<desc>Created with Fabric.js 5.2.4</desc>
<rect x="-259.1" y="-259.1" class="st0" width="1080" height="1080"/>
<g id="d257ea42-a5c1-45e2-ab19-9ef1d3b49a7f" transform="matrix(1 0 0 1 540 540)">
</g>
<g transform="matrix(1 0 0 1 540 540)">
	<rect x="-799.1" y="-799.1" vector-effect="non-scaling-stroke" class="st1" width="1080" height="1080"/>
</g>
<g transform="matrix(3.8 0 0 3.8 540 540)">
	<path vector-effect="non-scaling-stroke" class="st2" d="M-142.1-106.9c2.6,4,5.6,7.6,9,11c15.8,15.8,37.2,22.7,57.9,20.7
		c2.1-20.7-4.8-42-20.7-57.9c-3.4-3.4-7.1-6.4-11-9c2.4,9.6-0.1,20.1-7.6,27.6C-122-107-132.5-104.5-142.1-106.9z M5.8-29.4
		c-2.6-4-5.6-7.6-9-11c-15.8-15.8-37.2-22.7-57.9-20.7c-2.1,20.7,4.8,42,20.7,57.9c3.4,3.4,7.1,6.4,11,9c-2.4-9.6,0.1-20.1,7.6-27.6
		C-14.4-29.3-3.8-31.8,5.8-29.4L5.8-29.4z"/>
</g>
<g transform="matrix(3.8 0 0 3.8 540 540)">
	<path vector-effect="non-scaling-stroke" class="st3" d="M-106.9,5.7c4-2.6,7.6-5.6,11-9c15.8-15.8,22.7-37.2,20.7-57.9
		c-20.7-2.1-42,4.8-57.9,20.7c-3.4,3.4-6.4,7.1-9,11c9.6-2.4,20.1,0.1,27.6,7.6C-107-14.4-104.5-3.8-106.9,5.7L-106.9,5.7z
		 M-29.4-142.1c-4,2.6-7.6,5.6-11,9c-15.8,15.8-22.7,37.2-20.7,57.9c20.7,2.1,42-4.8,57.9-20.7c3.4-3.4,6.4-7.1,9-11
		c-9.6,2.4-20.1-0.1-27.6-7.6C-29.3-122-31.8-132.5-29.4-142.1L-29.4-142.1z"/>
</g>
</svg>
