<?xml version="1.0" encoding="utf-8"?>
<!-- Generator: Adobe Illustrator 23.0.6, SVG Export Plug-In . SVG Version: 6.00 Build 0)  -->
<svg version="1.1" id="Ebene_1" xmlns="http://www.w3.org/2000/svg" xmlns:xlink="http://www.w3.org/1999/xlink" x="0px" y="0px"
	 viewBox="0 0 243.6 224.2" style="enable-background:new 0 0 243.6 224.2;" xml:space="preserve">
<style type="text/css">
	.st0{fill:#0D8DBA;}
</style>
<title>
	Zeebe
</title>
<g>
	<path class="st0" d="M121.8,0C54.5,0,0,54.5,0,121.8c0,42.9,22.2,80.7,55.8,102.4c2.3-5.2,6.6-10.1,11.2-14.3l109.3-0.3
		c4.7,4.3,9.2,9.3,11.5,14.6c33.6-21.7,55.8-59.4,55.8-102.4C243.6,54.5,189.1,0,121.8,0z M213.4,137.3c-2.2,0.3-4.1-0.6-5.3-2.2
		c-1.3-1.8-3.4-2.8-5.6-2.8h-2.1c0.2,2.1,0.3,4.2,0.3,6.3c0.1,22.9-10.3,44.1-28.2,58.5l-101,0.3C53.5,183,43,161.9,43,139
		c0-2.3,0.1-4.5,0.3-6.7h-2.1c-2.2,0-4.3,1-5.6,2.8c-1.2,1.6-3.1,2.5-5.3,2.2c-2.8-0.4-4.9-3-4.9-5.8v-12.1c0-2.9,2-5.4,4.9-5.8
		c1.1-0.1,2.1,0,3.1,0.4c6.1-48.2,43.2-85.4,88.2-85.5c16.3,0,31.7,4.8,44.9,13.4l8.4-6.8c-1.3-2.3-1.3-5.3,0.4-7.6
		c2.2-3.1,6.6-3.9,9.8-1.6c3.1,2.2,3.9,6.6,1.6,9.8c-1.5,2.2-4.1,3.2-6.6,2.9l-3.9,10.6c18.1,15.5,30.7,38.5,34.1,64.9
		c0.9-0.4,2-0.6,3.2-0.5c2.8,0.4,4.9,3,4.9,5.8v12.1C218.3,134.3,216.2,136.9,213.4,137.3z"/>
	<path class="st0" d="M121.8,54.7c-0.1,0-0.2,0-0.2,0c-40.3,0.1-74.1,26.9-83.8,62.9c1,0.6,2.2,0.9,3.4,0.9h4.6
		c9.2-32.1,39.6-55.7,75.8-55.8c0.1,0,0.1,0,0.2,0c36.2,0,66.7,23.7,75.9,55.8h4.7c1.2,0,2.4-0.3,3.4-0.9
		C196.1,81.5,162.1,54.7,121.8,54.7z"/>
	<path class="st0" d="M144.8,94.2H98.9C74.7,94.2,55,113.8,55,138v4c0,24.2,19.6,43.8,43.8,43.8h45.9c24.2,0,43.8-19.6,43.8-43.8v-4
		C188.6,113.8,169,94.2,144.8,94.2z M143.1,172.1c-6.6,2.4-15.8,3-22.8,3c-5.7,0-9.9-0.4-10.3-0.4c-1.9-0.2-3.3-1.9-3.2-3.8
		c0.2-1.9,1.9-3.3,3.8-3.2c0.2,0,19.5,1.7,30-2.2c1.8-0.7,3.8,0.3,4.5,2.1C145.9,169.4,144.9,171.4,143.1,172.1z M162.1,148.4
		c-4.5,4.8-10.7,7.4-17.3,7.4c-7.8,0-15.1-3.8-19.5-10.2c-1.1-1.6-0.7-3.8,0.9-4.9c1.6-1.1,3.8-0.7,4.9,0.9
		c3.2,4.5,8.3,7.2,13.8,7.2c4.7,0,9-1.9,12.2-5.3c3.2-3.4,4.8-7.8,4.6-12.5c-0.5-8.6-7.5-15.5-16.1-15.9c-5.1-0.2-9.9,1.9-13.3,5.7
		c-0.8,0.8-1.5,1.9-2.2,3.2l-10.3,19.2c-1.5,2.7-3.3,5-5.3,6.8c-4.3,3.7-9.8,5.8-15.6,5.8c-6.6,0-12.7-2.6-17.3-7.4
		c-4.5-4.8-6.8-11.1-6.5-17.7c0.7-12.1,10.7-22,22.8-22.5c8.5-0.3,16.5,3.9,21,11c1,1.6,0.6,3.8-1.1,4.8c-1.6,1-3.8,0.6-4.8-1.1
		c-3.3-5.1-8.8-8-14.9-7.8c-8.6,0.3-15.7,7.3-16.1,15.9c-0.3,4.7,1.4,9.1,4.6,12.5s7.5,5.3,12.2,5.3c4,0,7.9-1.5,11-4.1
		c1.4-1.2,2.7-2.9,3.8-4.8l10.3-19.2c1-1.8,2-3.3,3.1-4.5c4.8-5.4,11.6-8.3,18.8-8c12.1,0.5,22.1,10.4,22.8,22.5
		C169,137.4,166.6,143.6,162.1,148.4z"/>
</g>
</svg>
