<?xml version="1.0" encoding="utf-8"?>
<!-- Generator: Adobe Illustrator 23.0.1, SVG Export Plug-In . SVG Version: 6.00 Build 0)  -->
<svg version="1.1" id="Layer_1" xmlns="http://www.w3.org/2000/svg" xmlns:xlink="http://www.w3.org/1999/xlink" x="0px" y="0px"
	viewBox="0 0 1000 1000" style="enable-background:new 0 0 1000 1000;" xml:space="preserve">
	<title>Elixir</title>
<style type="text/css">
	.st0{fill-rule:evenodd;clip-rule:evenodd;fill:url(#SVGID_1_);}
	.st1{fill-rule:evenodd;clip-rule:evenodd;fill:url(#SVGID_2_);}
	.st2{fill-rule:evenodd;clip-rule:evenodd;fill:url(#SVGID_3_);}
	.st3{fill-rule:evenodd;clip-rule:evenodd;fill:url(#SVGID_4_);}
	.st4{fill-rule:evenodd;clip-rule:evenodd;fill:url(#SVGID_5_);}
	.st5{fill-rule:evenodd;clip-rule:evenodd;fill:url(#SVGID_6_);}
	.st6{fill-rule:evenodd;clip-rule:evenodd;fill:url(#SVGID_7_);}
	.st7{fill-rule:evenodd;clip-rule:evenodd;fill:#33154C;fill-opacity:0.3163;}
	.st8{fill-rule:evenodd;clip-rule:evenodd;fill:#FFFFFF;}
	.st9{fill-rule:evenodd;clip-rule:evenodd;fill:#EDEDEE;fill-opacity:0.6033;}
</style>
<g>
	
		<linearGradient id="SVGID_1_" gradientUnits="userSpaceOnUse" x1="3825.1289" y1="615.4296" x2="3713.0762" y2="-3981.2273" gradientTransform="matrix(0.1297 0 0 -0.2 12.2801 201.1786)">
		<stop  offset="0" style="stop-color:#DAD9DC"/>
		<stop  offset="1" style="stop-color:#FFFFFF;stop-opacity:0.3853"/>
	</linearGradient>
	<path class="st0" d="M527.7,5c-72.3,25.6-142.1,100.4-209.4,224.4C217.4,415.3,87.1,679.5,266.5,888.7
		c83,96.8,220.1,153.9,400.1,63.4c144.5-72.7,184.7-281.2,132.8-379.2c-107-202.2-215.6-252-244.7-377.4
		C535.3,111.9,526.3,48.4,527.7,5z"/>
	
		<linearGradient id="SVGID_2_" gradientUnits="userSpaceOnUse" x1="4234.2769" y1="728.8845" x2="3317.4854" y2="-3266.8982" gradientTransform="matrix(0.1142 0 0 -0.2271 12.2956 228.3435)">
		<stop  offset="0" style="stop-color:#8D68AD;stop-opacity:0.6719"/>
		<stop  offset="1" style="stop-color:#A08DAF"/>
	</linearGradient>
	<path class="st1" d="M527.7,2.5C455,28.4,385.2,103.1,318.3,226.8C218,412.4,87.1,677,266.5,886.2c83,96.8,218.4,128.1,293.5,70.7
		c49-37.4,82.3-73.1,101.4-148.2c21.4-83.7,5-196.3-6.3-248.1c-14.2-65.5-18.9-137.4-14-215.6c-1.7-2.1-3-3.7-3.9-4.7
		c-39.1-47.8-69.3-89.5-82.6-147.2C535.3,109.4,526.3,45.9,527.7,2.5z"/>
	
		<linearGradient id="SVGID_3_" gradientUnits="userSpaceOnUse" x1="4353.021" y1="-574.9846" x2="4353.021" y2="-3581.8972" gradientTransform="matrix(0.1227 0 0 -0.2115 12.2871 212.6688)">
		<stop  offset="0" style="stop-color:#270C3D;stop-opacity:0.7616"/>
		<stop  offset="1" style="stop-color:#B7B5B5;stop-opacity:0.2777"/>
	</linearGradient>
	<path class="st2" d="M467.5,35c-67.7,53.5-118,143.2-151,269.2c-49.4,188.9-54.8,363.1-37.4,464.5
		c33.8,196.4,209.1,271,388.8,179.6C778.6,891.9,824.7,771.2,822.3,640C819.8,504.3,557.4,350.4,511,237.2
		C480,161.6,465.5,94.2,467.5,35z"/>
	
		<linearGradient id="SVGID_4_" gradientUnits="userSpaceOnUse" x1="1606.5652" y1="-1502.6256" x2="2997.3057" y2="-4301.3633" gradientTransform="matrix(0.1848 0 0 -0.1404 12.225 141.5175)">
		<stop  offset="0" style="stop-color:#91739F;stop-opacity:0.4595"/>
		<stop  offset="1" style="stop-color:#32154F;stop-opacity:0.5399"/>
	</linearGradient>
	<path class="st3" d="M639.1,389.2c81.2,104.1,98.9,176.6,53.1,217.4c-68.7,61.2-236.6,101.2-341.1,27.1
		c-69.6-49.4-96-155.3-79.1-317.9c-28.8,60-53.1,120.9-72.9,182.5s-25.7,126.1-17.4,193.4c24.9,50.4,85.4,84,181.6,100.9
		c144.3,25.4,280.8,12.8,372.4-33.4c61.1-30.8,90-61.4,86.7-92c2.2-45.1-11.7-87.9-41.7-128.7C750.7,497.9,703.5,448.1,639.1,389.2z
		"/>
	
		<linearGradient id="SVGID_5_" gradientUnits="userSpaceOnUse" x1="4675.4321" y1="-3943.7908" x2="2203.6321" y2="-1303.1182" gradientTransform="matrix(0.1418 0 0 -0.1829 12.2679 184.0575)">
		<stop  offset="0" style="stop-color:#473E4A;stop-opacity:0.3312"/>
		<stop  offset="1" style="stop-color:#341750;stop-opacity:0.8214"/>
	</linearGradient>
	<path class="st4" d="M321.9,285.3c-0.7,75.2,18.7,146.6,58,214.4c59,101.6,127.9,202.1,231,285.3c68.7,55.5,123.6,73.4,164.7,53.8
		c-33.8,60.4-69.6,90-107.7,88.8c-57-1.8-126.6-26.7-238-160.7c-74.3-89.3-125.1-173.7-152.5-253.4c4.3-31.6,8.9-63.1,13.8-94.4
		C296.1,387.8,306.3,343.2,321.9,285.3z"/>
	
		<linearGradient id="SVGID_6_" gradientUnits="userSpaceOnUse" x1="5212.1631" y1="-331.4168" x2="4476.5654" y2="-2916.2876" gradientTransform="matrix(0.106 0 0 -0.2448 12.3038 246.0219)">
		<stop  offset="0" style="stop-color:#725484;stop-opacity:0.1452"/>
		<stop  offset="1" style="stop-color:#F4F4F4;stop-opacity:0.2336"/>
	</linearGradient>
	<path class="st5" d="M496.2,388.4c6.3,61.2,30.1,159.2,0,224.4c-30.1,65.2-169.3,183.1-130.9,286.9s132.1,80.5,190.8,32.7
		s90.2-125.6,97.1-180.3c7-54.7-16.7-160-24.4-251.5c-5.1-61-1.6-113.4,10.4-157l-18-22.6l-105.9-31.4
		C498.4,314.6,492,347.6,496.2,388.4z"/>
	
		<linearGradient id="SVGID_7_" gradientUnits="userSpaceOnUse" x1="6592.6885" y1="-569.9917" x2="4243.1699" y2="-127.8619" gradientTransform="matrix(9.173097e-02 0 0 -0.2828 12.318 284.0534)">
		<stop  offset="0" style="stop-color:#A5A1A8;stop-opacity:0.3561"/>
		<stop  offset="1" style="stop-color:#361850;stop-opacity:0.582"/>
	</linearGradient>
	<path class="st6" d="M534.1,85.1c-34.3,14.5-66.8,43.2-97.5,86.1c-46,64.4-69.5,103-52.1,230.6c11.6,85.1,19.8,163.4,24.8,234.9
		l148.4-431.1c-5.5-22-10-41.8-13.6-59.5C540.5,128.4,537.1,108,534.1,85.1z"/>
	<path class="st7" d="M557.4,204.7c-37.7,22-66.9,67-87.6,135.1C449.2,408,430.2,503.2,413,625.5c22.9-77.8,38.1-134.1,45.6-169
		c11.2-52.3,15.1-126.4,44.9-176.6C523.4,246.3,541.4,221.3,557.4,204.7z"/>
	<path class="st8" d="M383,934.4c62,8.9,94.4,16.7,97.2,23.6c4.3,10.3-7.8,19.8-42.3,13.4C415.1,967.2,396.7,954.9,383,934.4z"/>
	<path class="st9" d="M414.2,85.1c-34.1,40.7-63.6,83.9-88.6,129.5c-25,45.6-42.8,79.7-53.6,102.1c-3.3,16.7-4.9,41.5-4.9,74.1
		c0.1,32.7,2.9,69,8.5,109c4.9-78.3,19.8-154.3,44.8-228C345.4,198.2,376.6,135.9,414.2,85.1z"/>
</g>
</svg>
